<?xml version="1.0" standalone="no"?><svg xmlns="http://www.w3.org/2000/svg" viewBox="0 0 1440 320"><path fill="#27105b" fill-opacity="1" d="M0,128L17.1,117.3C34.3,107,69,85,103,106.7C137.1,128,171,192,206,202.7C240,213,274,171,309,149.3C342.9,128,377,128,411,149.3C445.7,171,480,213,514,234.7C548.6,256,583,256,617,261.3C651.4,267,686,277,720,261.3C754.3,245,789,203,823,192C857.1,181,891,203,926,208C960,213,994,203,1029,192C1062.9,181,1097,171,1131,181.3C1165.7,192,1200,224,1234,202.7C1268.6,181,1303,107,1337,106.7C1371.4,107,1406,181,1423,218.7L1440,256L1440,0L1422.9,0C1405.7,0,1371,0,1337,0C1302.9,0,1269,0,1234,0C1200,0,1166,0,1131,0C1097.1,0,1063,0,1029,0C994.3,0,960,0,926,0C891.4,0,857,0,823,0C788.6,0,754,0,720,0C685.7,0,651,0,617,0C582.9,0,549,0,514,0C480,0,446,0,411,0C377.1,0,343,0,309,0C274.3,0,240,0,206,0C171.4,0,137,0,103,0C68.6,0,34,0,17,0L0,0Z"></path></svg>